# This file uses centimeters as units for non-parametric coordinates.

mtllib TSilindir.mtl
g default
v 0.951057 6.000000 -0.309017
v 0.809018 6.000000 -0.587786
v 0.587786 6.000000 -0.809017
v 0.309017 6.000000 -0.951057
v 0.000000 6.000000 -1.000000
v -0.309017 6.000000 -0.951057
v -0.587785 6.000000 -0.809017
v -0.809017 6.000000 -0.587785
v -0.951057 6.000000 -0.309017
v -1.000000 6.000000 0.000000
v -0.951057 6.000000 0.309017
v -0.809017 6.000000 0.587785
v -0.587785 6.000000 0.809017
v -0.309017 6.000000 0.951057
v -0.000000 6.000000 1.000000
v 0.309017 6.000000 0.951057
v 0.587785 6.000000 0.809017
v 0.809017 6.000000 0.587785
v 0.951057 6.000000 0.309017
v 1.000000 6.000000 0.000000
v 0.951057 9.000000 -0.309017
v 0.809018 9.000000 -0.587786
v 0.587786 9.000000 -0.809017
v 0.309017 9.000000 -0.951057
v 0.000000 9.000000 -1.000000
v -0.309017 9.000000 -0.951057
v -0.587785 9.000000 -0.809017
v -0.809017 9.000000 -0.587785
v -0.951057 9.000000 -0.309017
v -1.000000 9.000000 0.000000
v -0.951057 9.000000 0.309017
v -0.809017 9.000000 0.587785
v -0.587785 9.000000 0.809017
v -0.309017 9.000000 0.951057
v -0.000000 9.000000 1.000000
v 0.309017 9.000000 0.951057
v 0.587785 9.000000 0.809017
v 0.809017 9.000000 0.587785
v 0.951057 9.000000 0.309017
v 1.000000 9.000000 0.000000
v 0.000000 6.000000 0.000000
v 0.000000 9.000000 0.000000
vt 1.100032 0.000000
vt 1.200032 0.000000
vt 1.200032 1.000000
vt 1.100032 1.000000
vt 1.300032 0.000000
vt 1.300032 1.000000
vt 1.400032 1.000000
vt -0.499968 0.000000
vt -0.499968 1.000000
vt -0.399968 0.000000
vt -0.399968 1.000000
vt -0.299968 0.000000
vt -0.299968 1.000000
vt -0.199968 0.000000
vt -0.199968 1.000000
vt -0.099968 0.000000
vt -0.099968 1.000000
vt 0.000032 0.000000
vt 0.000032 1.000000
vt 0.100032 0.000000
vt 0.100032 1.000000
vt 0.200032 0.000000
vt 0.200032 1.000000
vt 0.300032 0.000000
vt 0.300032 1.000000
vt 0.400032 0.000000
vt 0.400032 1.000000
vt 0.500032 0.000000
vt 0.500032 1.000000
vt 0.600032 0.000000
vt 0.600032 1.000000
vt 0.700032 0.000000
vt 0.700032 1.000000
vt 0.800032 0.000000
vt 0.800032 1.000000
vt 0.900032 0.000000
vt 0.900032 1.000000
vt 1.000032 0.000000
vt 1.000032 1.000000
vt 0.687199 0.000000
vt 0.687199 1.000000
vt 1.400032 0.000000
vt 1.500032 0.000000
vt 1.600032 0.000000
vt 1.500032 1.000000
vt 1.600032 1.000000
vt 1.700032 1.000000
vn 0.951057 0.000000 -0.309016
vn 0.809017 0.000000 -0.587785
vn 0.951057 0.000000 -0.309016
vn 0.809017 0.000000 -0.587785
vn 0.587785 0.000000 -0.809017
vn 0.587785 0.000000 -0.809017
vn 0.309017 0.000000 -0.951057
vn 0.309017 0.000000 -0.951057
vn -0.000000 0.000000 -1.000000
vn 0.000000 0.000000 -1.000000
vn -0.309017 0.000000 -0.951056
vn -0.309017 0.000000 -0.951057
vn -0.587786 0.000000 -0.809017
vn -0.587785 0.000000 -0.809017
vn -0.809017 0.000000 -0.587785
vn -0.809017 0.000000 -0.587785
vn -0.951057 0.000000 -0.309017
vn -0.951057 0.000000 -0.309017
vn -1.000000 0.000000 0.000000
vn -1.000000 0.000000 -0.000000
vn -0.951057 0.000000 0.309017
vn -0.951057 0.000000 0.309017
vn -0.809017 0.000000 0.587785
vn -0.809017 0.000000 0.587785
vn -0.587785 0.000000 0.809017
vn -0.587785 0.000000 0.809017
vn -0.309017 0.000000 0.951056
vn -0.309017 0.000000 0.951057
vn 0.000000 0.000000 1.000000
vn -0.000000 0.000000 1.000000
vn 0.309017 0.000000 0.951057
vn 0.309017 0.000000 0.951056
vn 0.587785 0.000000 0.809017
vn 0.587785 0.000000 0.809017
vn 0.809017 0.000000 0.587785
vn 0.809017 0.000000 0.587785
vn 0.951057 0.000000 0.309017
vn 0.951057 0.000000 0.309017
vn 1.000000 0.000000 0.000001
vn 1.000000 0.000000 0.000001
vn 0.000000 -1.000000 0.000000
vn 0.000000 -1.000000 0.000000
vn 0.000000 -1.000000 0.000000
vn 0.000000 -1.000000 0.000000
vn 0.000000 -1.000000 0.000000
vn 0.000000 -1.000000 0.000000
vn 0.000000 -1.000000 0.000000
vn 0.000000 -1.000000 -0.000000
vn 0.000000 -1.000000 -0.000000
vn 0.000000 -1.000000 0.000000
vn 0.000000 -1.000000 0.000000
vn 0.000000 -1.000000 0.000000
vn 0.000000 -1.000000 0.000000
vn 0.000000 -1.000000 0.000000
vn 0.000000 -1.000000 -0.000000
vn 0.000000 -1.000000 -0.000000
vn 0.000000 -1.000000 -0.000000
vn 0.000000 -1.000000 0.000000
vn 0.000000 -1.000000 0.000000
vn 0.000000 -1.000000 0.000000
vn 0.000000 -1.000000 0.000000
vn 0.000000 1.000000 0.000000
vn 0.000000 1.000000 0.000000
vn 0.000000 1.000000 -0.000000
vn 0.000000 1.000000 0.000000
vn 0.000000 1.000000 0.000000
vn 0.000000 1.000000 0.000000
vn 0.000000 1.000000 -0.000000
vn 0.000000 1.000000 0.000000
vn 0.000000 1.000000 0.000000
vn 0.000000 1.000000 0.000000
vn 0.000000 1.000000 0.000000
vn 0.000000 1.000000 0.000000
vn 0.000000 1.000000 0.000000
vn 0.000000 1.000000 -0.000000
vn 0.000000 1.000000 0.000000
vn 0.000000 1.000000 -0.000000
vn 0.000000 1.000000 0.000000
vn 0.000000 1.000000 -0.000000
vn 0.000000 1.000000 -0.000000
vn 0.000000 1.000000 0.000000
vn 0.000000 1.000000 0.000000
s 1
g pCylinder2
usemtl lambert5SG
f 1/1/1 2/2/2 21/4/3
f 21/4/3 2/2/2 22/3/4
f 2/2/2 3/5/5 22/3/4
f 22/3/4 3/5/5 23/6/6
f 3/5/5 4/42/7 23/6/6
f 23/6/6 4/42/7 24/7/8
f 4/42/7 5/43/9 24/7/8
f 24/7/8 5/43/9 25/45/10
f 5/8/9 6/10/11 25/9/10
f 25/9/10 6/10/11 26/11/12
f 6/10/11 7/12/13 26/11/12
f 26/11/12 7/12/13 27/13/14
f 7/12/13 8/14/15 27/13/14
f 27/13/14 8/14/15 28/15/16
f 8/14/15 9/16/17 28/15/16
f 28/15/16 9/16/17 29/17/18
f 9/16/17 10/18/19 29/17/18
f 29/17/18 10/18/19 30/19/20
f 10/18/19 11/20/21 30/19/20
f 30/19/20 11/20/21 31/21/22
f 11/20/21 12/22/23 31/21/22
f 31/21/22 12/22/23 32/23/24
f 12/22/23 13/24/25 32/23/24
f 32/23/24 13/24/25 33/25/26
f 13/24/25 14/26/27 33/25/26
f 33/25/26 14/26/27 34/27/28
f 14/26/27 15/28/29 34/27/28
f 34/27/28 15/28/29 35/29/30
f 15/28/29 16/30/31 35/29/30
f 35/29/30 16/30/31 36/31/32
f 16/30/31 17/32/33 36/31/32
f 36/31/32 17/32/33 37/33/34
f 17/32/33 18/34/35 37/33/34
f 37/33/34 18/34/35 38/35/36
f 18/34/35 19/36/37 38/35/36
f 38/35/36 19/36/37 39/37/38
f 19/36/37 20/38/39 39/37/38
f 39/37/38 20/38/39 40/39/40
f 20/38/39 1/1/1 40/39/40
f 40/39/40 1/1/1 21/4/3
s 2
f 2/2/41 1/1/42 41/40/43
f 3/5/44 2/2/41 41/40/43
f 4/42/45 3/5/44 41/40/43
f 5/43/46 4/42/45 41/40/43
f 6/44/47 5/43/46 41/40/43
f 7/12/48 6/44/47 41/40/43
f 8/14/49 7/12/48 41/40/43
f 9/16/50 8/14/49 41/40/43
f 10/18/51 9/16/50 41/40/43
f 11/20/52 10/18/51 41/40/43
f 12/22/53 11/20/52 41/40/43
f 13/24/54 12/22/53 41/40/43
f 14/26/55 13/24/54 41/40/43
f 15/28/56 14/26/55 41/40/43
f 16/30/57 15/28/56 41/40/43
f 17/32/58 16/30/57 41/40/43
f 18/34/59 17/32/58 41/40/43
f 19/36/60 18/34/59 41/40/43
f 20/38/61 19/36/60 41/40/43
f 1/1/42 20/38/61 41/40/43
s 3
f 21/4/62 22/3/63 42/41/64
f 22/3/63 23/6/65 42/41/64
f 23/6/65 24/7/66 42/41/64
f 24/7/66 25/45/67 42/41/64
f 25/45/67 26/46/68 42/41/64
f 26/46/68 27/47/69 42/41/64
f 27/13/69 28/15/70 42/41/64
f 28/15/70 29/17/71 42/41/64
f 29/17/71 30/19/72 42/41/64
f 30/19/72 31/21/73 42/41/64
f 31/21/73 32/23/74 42/41/64
f 32/23/74 33/25/75 42/41/64
f 33/25/75 34/27/76 42/41/64
f 34/27/76 35/29/77 42/41/64
f 35/29/77 36/31/78 42/41/64
f 36/31/78 37/33/79 42/41/64
f 37/33/79 38/35/80 42/41/64
f 38/35/80 39/37/81 42/41/64
f 39/37/81 40/39/82 42/41/64
f 40/39/82 21/4/62 42/41/64
