# This file uses centimeters as units for non-parametric coordinates.

mtllib Walls.mtl
g default
v 30.320955 0.000000 -7.055853
v 30.674507 0.000000 -7.409406
v 30.320955 5.000000 -7.055853
v 30.674507 5.000000 -7.409406
v 9.107752 5.000000 -28.269056
v 9.461305 5.000000 -28.622610
v 9.107752 0.000000 -28.269056
v 9.461305 0.000000 -28.622610
vt -0.990711 -0.990711
vt -0.941835 -0.990711
vt -0.990711 1.990711
vt -0.941835 1.990711
vt 1.941835 1.990711
vt 1.990711 1.990711
vt 1.941835 -0.990711
vt 1.990711 -0.990711
vn 0.707107 0.000000 0.707107
vn 0.707107 0.000000 0.707107
vn 0.707107 0.000000 0.707107
vn 0.707107 0.000000 0.707107
vn 0.707107 0.000000 0.707107
vn 0.707107 0.000000 0.707107
vn 0.000000 1.000000 0.000000
vn 0.000000 1.000000 0.000000
vn 0.000000 1.000000 0.000000
vn 0.000000 1.000000 0.000000
vn 0.000000 1.000000 0.000000
vn 0.000000 1.000000 0.000000
vn -0.707107 0.000000 -0.707107
vn -0.707107 0.000000 -0.707107
vn -0.707107 0.000000 -0.707107
vn -0.707107 0.000000 -0.707107
vn -0.707107 0.000000 -0.707107
vn -0.707107 0.000000 -0.707107
vn 0.000000 -1.000000 0.000000
vn 0.000000 -1.000000 0.000000
vn 0.000000 -1.000000 0.000000
vn 0.000000 -1.000000 0.000000
vn 0.000000 -1.000000 0.000000
vn 0.000000 -1.000000 0.000000
vn 0.707107 0.000000 -0.707107
vn 0.707107 0.000000 -0.707107
vn 0.707107 0.000000 -0.707107
vn 0.707107 0.000000 -0.707107
vn 0.707107 0.000000 -0.707107
vn 0.707107 0.000000 -0.707107
vn -0.707107 0.000000 0.707107
vn -0.707107 0.000000 0.707107
vn -0.707107 0.000000 0.707107
vn -0.707107 0.000000 0.707107
vn -0.707107 0.000000 0.707107
vn -0.707107 0.000000 0.707107
s off
g Walls:pCube4
usemtl initialShadingGroup
f 1/1/1 2/2/2 3/3/3
f 3/3/4 2/2/5 4/4/6
f 3/3/7 4/4/8 5/5/9
f 5/5/10 4/4/11 6/6/12
f 5/5/13 6/6/14 7/7/15
f 7/7/16 6/6/17 8/8/18
f 7/7/19 8/8/20 1/1/21
f 1/1/22 8/8/23 2/2/24
f 2/2/25 8/8/26 4/4/27
f 4/4/28 8/8/29 6/6/30
f 7/7/31 1/1/32 5/5/33
f 5/5/34 1/1/35 3/3/36
g default
v 26.931026 0.000000 8.643772
v 26.577475 0.000000 8.290218
v 26.931026 5.000000 8.643772
v 26.577475 5.000000 8.290218
v 5.717824 5.000000 29.856976
v 5.364270 5.000000 29.503422
v 5.717824 0.000000 29.856976
v 5.364270 0.000000 29.503422
vt 1.946074 -0.995094
vt 1.995093 -0.995094
vt 1.946074 1.995094
vt 1.995093 1.995094
vt -0.995094 1.995094
vt -0.946074 1.995094
vt -0.995094 -0.995094
vt -0.946074 -0.995094
vn 0.707109 0.000000 -0.707105
vn 0.707109 0.000000 -0.707105
vn 0.707109 0.000000 -0.707105
vn 0.707107 0.000000 -0.707107
vn 0.707107 0.000000 -0.707107
vn 0.707107 0.000000 -0.707107
vn 0.000000 1.000000 0.000000
vn 0.000000 1.000000 0.000000
vn 0.000000 1.000000 0.000000
vn 0.000000 1.000000 0.000000
vn 0.000000 1.000000 0.000000
vn 0.000000 1.000000 0.000000
vn -0.707107 0.000000 0.707107
vn -0.707107 0.000000 0.707107
vn -0.707107 0.000000 0.707107
vn -0.707107 0.000000 0.707107
vn -0.707107 0.000000 0.707107
vn -0.707107 0.000000 0.707107
vn 0.000000 -1.000000 0.000000
vn 0.000000 -1.000000 0.000000
vn 0.000000 -1.000000 0.000000
vn 0.000000 -1.000000 0.000000
vn 0.000000 -1.000000 0.000000
vn 0.000000 -1.000000 0.000000
vn -0.707107 0.000000 -0.707107
vn -0.707107 0.000000 -0.707107
vn -0.707107 0.000000 -0.707107
vn -0.707107 0.000000 -0.707107
vn -0.707107 0.000000 -0.707107
vn -0.707107 0.000000 -0.707107
vn 0.707107 0.000000 0.707107
vn 0.707107 0.000000 0.707107
vn 0.707107 0.000000 0.707107
vn 0.707107 0.000000 0.707107
vn 0.707107 0.000000 0.707107
vn 0.707107 0.000000 0.707107
s off
g Walls:pCube6
usemtl initialShadingGroup
f 9/9/37 10/10/38 11/11/39
f 11/11/40 10/10/41 12/12/42
f 11/11/43 12/12/44 13/13/45
f 13/13/46 12/12/47 14/14/48
f 13/13/49 14/14/50 15/15/51
f 15/15/52 14/14/53 16/16/54
f 15/15/55 16/16/56 9/9/57
f 9/9/58 16/16/59 10/10/60
f 10/10/61 16/16/62 12/12/63
f 12/12/64 16/16/65 14/14/66
f 15/15/67 9/9/68 13/13/69
f 13/13/70 9/9/71 11/11/72
g default
v -9.846012 0.000000 31.357355
v -9.492458 0.000000 31.003801
v -9.846012 5.000000 31.357355
v -9.492458 5.000000 31.003801
v -31.059216 5.000000 10.144151
v -30.705662 5.000000 9.790598
v -31.059216 0.000000 10.144151
v -30.705662 0.000000 9.790598
vt -1.056915 -1.056915
vt -1.005869 -1.056915
vt -1.056915 2.056915
vt -1.005869 2.056915
vt 2.005869 2.056915
vt 2.056915 2.056915
vt 2.005869 -1.056915
vt 2.056915 -1.056915
vn 0.707105 0.000000 0.707108
vn 0.707105 0.000000 0.707108
vn 0.707105 0.000000 0.707108
vn 0.707107 0.000000 0.707107
vn 0.707107 0.000000 0.707107
vn 0.707107 0.000000 0.707107
vn 0.000000 1.000000 0.000000
vn 0.000000 1.000000 0.000000
vn 0.000000 1.000000 0.000000
vn 0.000000 1.000000 0.000000
vn 0.000000 1.000000 0.000000
vn 0.000000 1.000000 0.000000
vn -0.707107 0.000000 -0.707107
vn -0.707107 0.000000 -0.707107
vn -0.707107 0.000000 -0.707107
vn -0.707107 0.000000 -0.707107
vn -0.707107 0.000000 -0.707107
vn -0.707107 0.000000 -0.707107
vn 0.000000 -1.000000 0.000000
vn 0.000000 -1.000000 0.000000
vn 0.000000 -1.000000 0.000000
vn 0.000000 -1.000000 0.000000
vn 0.000000 -1.000000 0.000000
vn 0.000000 -1.000000 0.000000
vn 0.707107 0.000000 -0.707107
vn 0.707107 0.000000 -0.707107
vn 0.707107 0.000000 -0.707107
vn 0.707107 0.000000 -0.707107
vn 0.707107 0.000000 -0.707107
vn 0.707107 0.000000 -0.707107
vn -0.707107 0.000000 0.707107
vn -0.707107 0.000000 0.707107
vn -0.707107 0.000000 0.707107
vn -0.707107 0.000000 0.707107
vn -0.707107 0.000000 0.707107
vn -0.707107 0.000000 0.707107
s off
g Walls:pCube3
usemtl initialShadingGroup
f 17/17/73 18/18/74 19/19/75
f 19/19/76 18/18/77 20/20/78
f 19/19/79 20/20/80 21/21/81
f 21/21/82 20/20/83 22/22/84
f 21/21/85 22/22/86 23/23/87
f 23/23/88 22/22/89 24/24/90
f 23/23/91 24/24/92 17/17/93
f 17/17/94 24/24/95 18/18/96
f 18/18/97 24/24/98 20/20/99
f 20/20/100 24/24/101 22/22/102
f 23/23/103 17/17/104 21/21/105
f 21/21/106 17/17/107 19/19/108
g default
v -5.525448 0.000000 -28.464415
v -5.879001 0.000000 -28.817966
v -5.525448 5.000000 -28.464415
v -5.879001 5.000000 -28.817966
v -26.738651 5.000000 -7.251211
v -27.092205 5.000000 -7.604764
v -26.738651 0.000000 -7.251211
v -27.092205 0.000000 -7.604764
vt 1.953200 -1.002461
vt 2.002461 -1.002461
vt 1.953200 2.002461
vt 2.002461 2.002461
vt -1.002460 2.002461
vt -0.953200 2.002461
vt -1.002460 -1.002461
vt -0.953200 -1.002461
vn 0.707106 0.000000 -0.707108
vn 0.707106 0.000000 -0.707108
vn 0.707106 0.000000 -0.707108
vn 0.707107 0.000000 -0.707107
vn 0.707107 0.000000 -0.707107
vn 0.707107 0.000000 -0.707107
vn 0.000000 1.000000 0.000000
vn 0.000000 1.000000 0.000000
vn 0.000000 1.000000 0.000000
vn 0.000000 1.000000 0.000000
vn 0.000000 1.000000 0.000000
vn 0.000000 1.000000 0.000000
vn -0.707107 0.000000 0.707107
vn -0.707107 0.000000 0.707107
vn -0.707107 0.000000 0.707107
vn -0.707107 0.000000 0.707107
vn -0.707107 0.000000 0.707107
vn -0.707107 0.000000 0.707107
vn 0.000000 -1.000000 0.000000
vn 0.000000 -1.000000 0.000000
vn 0.000000 -1.000000 0.000000
vn 0.000000 -1.000000 0.000000
vn 0.000000 -1.000000 0.000000
vn 0.000000 -1.000000 0.000000
vn -0.707107 0.000000 -0.707107
vn -0.707107 0.000000 -0.707107
vn -0.707107 0.000000 -0.707107
vn -0.707107 0.000000 -0.707107
vn -0.707107 0.000000 -0.707107
vn -0.707107 0.000000 -0.707107
vn 0.707107 0.000000 0.707107
vn 0.707107 0.000000 0.707107
vn 0.707107 0.000000 0.707107
vn 0.707107 0.000000 0.707107
vn 0.707107 0.000000 0.707107
vn 0.707107 0.000000 0.707107
s off
g Walls:pCube5
usemtl initialShadingGroup
f 25/25/109 26/26/110 27/27/111
f 27/27/112 26/26/113 28/28/114
f 27/27/115 28/28/116 29/29/117
f 29/29/118 28/28/119 30/30/120
f 29/29/121 30/30/122 31/31/123
f 31/31/124 30/30/125 32/32/126
f 31/31/127 32/32/128 25/25/129
f 25/25/130 32/32/131 26/26/132
f 26/26/133 32/32/134 28/28/135
f 28/28/136 32/32/137 30/30/138
f 31/31/139 25/25/140 29/29/141
f 29/29/142 25/25/143 27/27/144
