# This file uses centimeters as units for non-parametric coordinates.

mtllib Box.mtl
g default
v -3.000000 -3.000000 3.000000
v 3.000000 -3.000000 3.000000
v -3.000000 3.000000 3.000000
v 3.000000 3.000000 3.000000
v -3.000000 3.000000 -3.000000
v 3.000000 3.000000 -3.000000
v -3.000000 -3.000000 -3.000000
v 3.000000 -3.000000 -3.000000
vt 0.001992 0.001992
vt 0.998008 0.001992
vt 0.998008 0.998008
vt 0.001992 0.998008
vt 0.001992 0.001992
vt 0.998008 0.001992
vt 0.998008 0.998008
vt 0.001992 0.998008
vt 0.001992 0.001992
vt 0.998008 0.001992
vt 0.998008 0.998008
vt 0.001992 0.998008
vt 0.996156 0.001992
vt 0.997979 0.995852
vt 0.003815 0.998008
vt 0.001992 0.004148
vt 0.998008 0.990631
vt 0.009369 0.998008
vt 0.990631 0.001992
vt 0.001992 0.009369
vt 0.001992 0.006516
vt 0.993484 0.001992
vt 0.006516 0.998008
vt 0.998008 0.993484
vn 0.000000 0.000000 1.000000
vn 0.000000 0.000000 1.000000
vn 0.000000 0.000000 1.000000
vn 0.000000 0.000000 1.000000
vn 0.000000 1.000000 0.000000
vn 0.000000 1.000000 0.000000
vn 0.000000 1.000000 0.000000
vn 0.000000 1.000000 0.000000
vn 0.000000 0.000000 -1.000000
vn 0.000000 0.000000 -1.000000
vn 0.000000 0.000000 -1.000000
vn 0.000000 0.000000 -1.000000
vn 0.000000 -1.000000 0.000000
vn 0.000000 -1.000000 0.000000
vn 0.000000 -1.000000 0.000000
vn 0.000000 -1.000000 0.000000
vn 1.000000 0.000000 0.000000
vn 1.000000 0.000000 0.000000
vn 1.000000 0.000000 0.000000
vn 1.000000 0.000000 0.000000
vn -1.000000 0.000000 0.000000
vn -1.000000 0.000000 0.000000
vn -1.000000 0.000000 0.000000
vn -1.000000 0.000000 0.000000
s 1
g pCube1
usemtl initialShadingGroup
f 1/5/1 2/6/2 3/8/3
f 3/8/3 2/6/2 4/7/4
s 2
f 3/21/5 4/22/6 5/23/7
f 5/23/7 4/22/6 6/24/8
s 3
f 5/17/9 6/18/10 7/19/11
f 7/19/11 6/18/10 8/20/12
s 4
f 7/13/13 8/14/14 1/16/15
f 1/16/15 8/14/14 2/15/16
s 5
f 2/9/17 8/10/18 4/12/19
f 4/12/19 8/10/18 6/11/20
s 6
f 7/1/21 1/2/22 5/4/23
f 5/4/23 1/2/22 3/3/24
